<svg xmlns="http://www.w3.org/2000/svg" viewBox="0 0 330 72" role="img" aria-labelledby="title">
  <title id="title">BhoomiKonnect monochrome logo</title>
  <path fill="currentColor" d="M36 4C18.6 4 5 17.2 5 33.5c0 20 25.8 34.2 29.9 36.4.7.4 1.5.4 2.2 0C41.2 67.7 67 53.5 67 33.5 67 17.2 53.4 4 36 4Zm-18 28 18-15 18 15v5.5L36 22.8 18 37.5V32Zm6 1h17c7.2 0 12 3.5 12 9.5 0 3.7-2 6.6-5.5 8.1 2.6.8 4.5 2.5 5.5 4.8A65 65 0 0 1 43 64H24V33Zm9 7v7h6.2c2.4 0 3.7-1.3 3.7-3.5S41.6 40 39.2 40H33Zm0 13v7.3h7.2c2.5 0 3.9-1.3 3.9-3.7 0-2.3-1.4-3.6-3.9-3.6H33Z" fill-rule="evenodd"/>
  <text x="84" y="47" fill="currentColor" font-family="Manrope, Inter, Arial, sans-serif" font-size="31" font-weight="800">BhoomiKonnect</text>
</svg>
