<svg xmlns="http://www.w3.org/2000/svg" viewBox="0 0 330 72" role="img" aria-labelledby="title">
  <title id="title">BhoomiKonnect</title>
  <g transform="translate(4 4) scale(1)">
    <path fill="#0B5D4B" d="M32 0C14.6 0 1 13.2 1 29.5c0 20 25.8 34.2 29.9 36.4.7.4 1.5.4 2.2 0C37.2 63.7 63 49.5 63 29.5 63 13.2 49.4 0 32 0Z"/>
    <path fill="#fff" d="m14 28 18-15 18 15v5.5L32 18.8 14 33.5V28Z"/>
    <path fill="#D8A62A" d="M20 29h17c7.2 0 12 3.5 12 9.5 0 3.7-2 6.6-5.5 8.1 3.7 1.2 6 3.9 6.4 7.8a72 72 0 0 1-7.1 6H20V29Zm9 7v7h6.2c2.4 0 3.7-1.3 3.7-3.5S37.6 36 35.2 36H29Zm0 13v7.3h7.2c2.5 0 3.9-1.3 3.9-3.7 0-2.3-1.4-3.6-3.9-3.6H29Z"/>
  </g>
  <text x="80" y="43" fill="#102A2E" font-family="Manrope, Inter, Arial, sans-serif" font-size="31" font-weight="800">Bhoomi<tspan fill="#118C5A">Konnect</tspan></text>
  <text x="82" y="62" fill="#51666A" font-family="Inter, Arial, sans-serif" font-size="10">FROM LAND TO DREAM HOME</text>
</svg>
