<svg xmlns="http://www.w3.org/2000/svg" viewBox="0 0 64 64" role="img" aria-labelledby="title">
  <title id="title">BhoomiKonnect logo mark</title>
  <path fill="#0B5D4B" d="M32 3C17.6 3 6 14.2 6 28c0 17.7 22.1 31 25.1 32.7a1.8 1.8 0 0 0 1.8 0C35.9 59 58 45.7 58 28 58 14.2 46.4 3 32 3Z"/>
  <path fill="#fff" d="M17 27.5 32 15l15 12.5v4.7L32 20 17 32.2v-4.7Z"/>
  <path fill="#D8A62A" d="M22 29h14.2c6.2 0 10.3 3.1 10.3 8.2 0 3.3-1.8 5.8-4.8 7.1 3.6 1.1 5.7 3.9 5.7 7.7 0 .6 0 1.2-.1 1.7a59 59 0 0 1-5.4 4.2H22V29Zm8 6v6h5.4c2 0 3.1-1.1 3.1-3s-1.1-3-3.1-3H30Zm0 12v6.4h6.2c2.2 0 3.4-1.1 3.4-3.2S38.4 47 36.2 47H30Z"/>
</svg>
